<svg width="16" height="27" viewBox="0 0 16 27" fill="none" xmlns="http://www.w3.org/2000/svg">
<path d="M15.5477 12.4465L3.47431 0.431338C3.19507 0.153218 2.8223 0 2.42483 0C2.02736 0 1.6546 0.153218 1.37535 0.431338L0.486236 1.31596C-0.0923217 1.8924 -0.0923217 2.82927 0.486236 3.40483L10.6245 13.4944L0.474987 23.5951C0.195744 23.8733 0.0415649 24.244 0.0415649 24.6394C0.0415649 25.0351 0.195744 25.4059 0.474987 25.6843L1.36411 26.5687C1.64357 26.8467 2.01612 27 2.41358 27C2.81105 27 3.18381 26.8467 3.46306 26.5687L15.5477 14.5425C15.8276 14.2635 15.9813 13.8911 15.9804 13.4951C15.9813 13.0975 15.8276 12.7252 15.5477 12.4465Z" fill="white"/>
</svg>
