<svg width="184" height="312" viewBox="0 0 184 312" fill="none" xmlns="http://www.w3.org/2000/svg">
<path d="M178.799 143.826L39.9546 4.98435C36.7433 1.77052 32.4565 0 27.8856 0C23.3147 0 19.0279 1.77052 15.8166 4.98435L5.59174 15.2067C-1.06167 21.8677 -1.06167 32.6938 5.59174 39.3447L122.182 155.935L5.46238 272.655C2.25109 275.869 0.478027 280.153 0.478027 284.722C0.478027 289.295 2.25109 293.579 5.46238 296.796L15.6873 307.016C18.9011 310.229 23.1854 312 27.7562 312C32.3271 312 36.6139 310.229 39.8252 307.016L178.799 168.047C182.017 164.823 183.785 160.519 183.775 155.943C183.785 151.349 182.017 147.047 178.799 143.826Z" fill="white"/>
</svg>
