<svg width="678" height="678" viewBox="0 0 678 678" fill="none" xmlns="http://www.w3.org/2000/svg">
<path d="M595 180.248C575.96 188.6 555.672 194.136 534.52 196.824C556.28 183.832 572.888 163.416 580.696 138.808C560.408 150.904 538.008 159.448 514.136 164.216C494.872 143.704 467.416 131 437.464 131C379.352 131 332.568 178.168 332.568 235.992C332.568 244.312 333.272 252.312 335 259.928C247.736 255.672 170.52 213.848 118.648 150.136C109.592 165.848 104.28 183.832 104.28 203.192C104.28 239.544 123 271.768 150.904 290.424C134.04 290.104 117.496 285.208 103.48 277.496C103.48 277.816 103.48 278.232 103.48 278.648C103.48 329.656 139.864 372.024 187.576 381.784C179.032 384.12 169.72 385.24 160.056 385.24C153.336 385.24 146.552 384.856 140.184 383.448C153.784 425.016 192.376 455.576 238.264 456.568C202.552 484.504 157.208 501.336 108.12 501.336C99.512 501.336 91.256 500.952 83 499.896C129.496 529.88 184.6 547 244.024 547C437.176 547 542.776 387 542.776 248.312C542.776 243.672 542.616 239.192 542.392 234.744C563.224 219.96 580.728 201.496 595 180.248Z" fill="white"/>
</svg>
